# AST/ASF file generated using VICON BodyLanguage
# -----------------------------------------------
:version 1.10
:name VICON
:units
  mass 1.0
  length 0.45
  angle deg
:documentation
   .ast/.asf automatically generated from VICON data using
   VICON BodyBuilder and BodyLanguage model FoxedUp or BRILLIANT.MOD
:root
   order TX TY TZ RX RY RZ
   axis XYZ
   position 0 0 0  
   orientation 0 0 0 
:bonedata
  begin
     id 1 
     name lhipjoint
     direction 0.567149 -0.783011 0.255413 
     length 2.28399 
     axis 0 0 0  XYZ
  end
  begin
     id 2 
     name lfemur
     direction 0.34202 -0.939693 0  
     length 7.34031  
     axis 0 0 20  XYZ
    dof rx ry rz
    limits (-160.0 20.0)
           (-70.0 70.0)
           (-60.0 70.0)
  end
  begin
     id 3 
     name ltibia
     direction 0.34202 -0.939693 0   
     length 6.9833   
     axis 0 0 20   XYZ
    dof rx
    limits (-10.0 170.0)
  end
  begin
     id 4 
     name lfoot
     direction 0.136498 -0.375025 0.91691   
     length 2.33665   
     axis -90 7.62852e-016 20   XYZ
    dof rx rz
    limits (-45.0 90.0)
           (-70.0 20.0)
  end
  begin
     id 5 
     name ltoes
     direction 1.5367e-011 -4.21617e-011 1   
     length 1.15039   
     axis -90 7.62852e-016 20   XYZ
    dof rx
    limits (-90.0 20.0)
  end
  begin
     id 6 
     name rhipjoint
     direction -0.602854 -0.758518 0.247423   
     length 2.35775  
     axis 0 0 0  XYZ 
  end
  begin
     id 7 
     name rfemur
     direction -0.34202 -0.939693 0   
     length 7.43932   
     axis 0 0 -20   XYZ
    dof rx ry rz
    limits (-160.0 20.0)
           (-70.0 70.0)
           (-70.0 60.0)
  end
  begin
     id 8 
     name rtibia
     direction -0.34202 -0.939693 0   
     length 7.11893   
     axis 0 0 -20   XYZ
    dof rx
    limits (-10.0 170.0)
 end
 begin
     id 9 
     name rfoot
     direction -0.131771 -0.362037 0.922803   
     length 2.53019  
     axis -90 -7.62852e-016 -20   XYZ
    dof rx rz
    limits (-45.0 90.0)
           (-20.0 70.0)
  end
  begin
     id 10 
     name rtoes
     direction -1.53733e-011 -4.21932e-011 1   
     length 1.24596   
     axis -90 -7.62852e-016 -20   XYZ
    dof rx
    limits (-90.0 20.0)
  end
  begin
     id 11 
     name lowerback
     direction 0.0235427 0.999023 -0.0374125   
     length 2.21768   
     axis 0 0 0   XYZ
    dof rx ry rz
    limits (-20.0 45.0)
           (-30.0 30.0)
           (-30.0 30.0)
  end
  begin
     id 12 
     name upperback
     direction 0.0302156 0.996818 -0.073759   
     length 2.20352   
     axis 0 0 0   XYZ
    dof rx ry rz
    limits (-20.0 45.0)
           (-30.0 30.0)
           (-30.0 30.0)
  end
  begin
     id 13 
     name thorax
     direction 0.0187169 0.998235 -0.0563532   
     length 2.22103   
     axis 0 0 0   XYZ
    dof rx ry rz
    limits (-20.0 45.0)
           (-30.0 30.0)
           (-30.0 30.0)
  end
  begin
     id 14 
     name lowerneck
     direction -0.119528 0.987423 0.103481   
     length 1.72948   
     axis 0 0 0   XYZ
    dof rx ry rz
    limits (-20.0 45.0)
           (-30.0 30.0)
           (-30.0 30.0)
  end
  begin
     id 15 
     name upperneck
     direction 0.248049 0.963095 -0.104496   
     length 1.74979   
     axis 0 0 0   XYZ
    dof rx ry rz
    limits (-20.0 45.0)
           (-30.0 30.0)
           (-30.0 30.0)
  end
  begin
     id 16
     name head
     direction 0.0903589 0.994284 -0.056876  
     length 1.78268  
     axis 0 0 0   XYZ
    dof rx ry rz
    limits (-20.0 45.0)
           (-30.0 30.0)
           (-30.0 30.0)
  end
  begin
     id 17 
     name lclavicle
     direction 0.946008 0.242039 -0.215608  
     length 3.80783  
     axis 0 0 0   XYZ
    dof ry rz
    limits (-20.0 10.0)
           (0.0 20.0)
  end
  begin
     id 18 
     name lhumerus
     direction 1 -4.48991e-011 -2.25695e-027   
     length 4.83125   
     axis 180 -30 -90   XYZ
    dof rx ry rz
    limits (-60.0 90.0)
           (-90.0 90.0)
           (-90.0 90.0)
  end
  begin
     id 19
     name lradius
     direction 0.999991 0.00366712 -0.00211721   
     length 3.00391   
     axis 180 -30 -90   XYZ
    dof rx
    limits (-10.0 170.0)
  end
  begin
     id 20
     name lwrist
     direction 0.999991 0.00393016 -0.00141978   
     length 1.50195   
     axis -1.00488e-014 90 90   XYZ
    dof ry
    limits (-180.0 0.0)
 end
  begin
     id 21 
     name lhand
     direction 1 -4.49123e-011 2.72098e-026   
     length 1.2717   
     axis -1.73687e-014 90 90   XYZ
    dof rx rz
    limits (-90.0 90.0)
           (-45.0 45.0)
  end
  begin
     id 22 
     name lfingers
     direction 1 -4.48678e-011 5.4479e-026   
     length 1.02528   
     axis -3.47372e-014 90 90   XYZ
    dof rx
    limits (0.0 90.0)
  end
  begin
     id 23
     name lthumb
     direction 0.707107 -6.34851e-011 0.707107   
     length 1.4721   
     axis -90 45 -1.62303e-014   XYZ
    dof rx rz
    limits (-45.0 45.0)
           (-45.0 45.0)
  end
  begin
     id 24 
     name rclavicle
     direction -0.981723 0.189447 -0.0181673   
     length 3.74989  
     axis 0 0 0   XYZ 
    dof ry rz
    limits (-10.0 20.0)
           (-20.0 0.0)
  end
  begin
     id 25 
     name rhumerus
     direction -1 -4.48985e-011 2.38206e-027  
     length 4.61118   
     axis 180 30 90   XYZ
    dof rx ry rz
    limits (-90.0 60.0)
           (-90.0 90.0)
           (-90.0 90.0)
  end
  begin
     id 26 
     name rradius
     direction -1 -4.48977e-011 7.41019e-027   
     length 2.91491   
     axis 180 30 90   XYZ
    dof rx
    limits (-10.0 170.0)
  end
  begin
     id 27 
     name rwrist
     direction -1 -4.48549e-011 1.3624e-026   
     length 1.45745   
     axis -1.00488e-014 -90 -90   XYZ
    dof ry
    limits (-180.0 0.0)
  end
  begin
     id 28
     name rhand
     direction -1 -4.49107e-011 2.72109e-026   
     length 1.30769   
     axis -1.73687e-014 -90 -90   XYZ
    dof rx rz
    limits (-90.0 90.0)
           (-45.0 45.0)
  end
  begin
     id 29
     name rfingers
     direction -1 -4.48919e-011 5.44468e-026   
     length 1.05429   
     axis -3.47372e-014 -90 -90   XYZ
    dof rx
    limits (0.0 90.0)
  end
  begin
     id 30
     name rthumb
     direction -0.707107 -6.35315e-011 0.707107   
     length 1.51376   
     axis -90 -45 1.62303e-014   XYZ
    dof rx rz
    limits (-45.0 45.0)
           (-45.0 45.0)
  end
:hierarchy
  begin
    root lhipjoint rhipjoint lowerback
    lhipjoint lfemur
    lfemur ltibia
    ltibia lfoot
    lfoot ltoes
    rhipjoint rfemur
    rfemur rtibia
    rtibia rfoot
    rfoot rtoes
    lowerback upperback
    upperback thorax
    thorax lowerneck lclavicle rclavicle
    lowerneck upperneck
    upperneck head
    lclavicle lhumerus
    lhumerus lradius
    lradius lwrist
    lwrist lhand lthumb
    lhand lfingers
    rclavicle rhumerus
    rhumerus rradius
    rradius rwrist
    rwrist rhand rthumb
    rhand rfingers
  end

#!OML:ASF X:\für Bonn\!DataBase\2005_08_11_Bastian_Final\c3d\Bastian.ASF
:FULLY-SPECIFIED
:DEGREES
1
root -1.58594 16.4858 -6.99571 169.037 11.9302 -174.512
lowerback 3.98198 -2.49893 0.754896
upperback 5.73088 -2.98217 1.38468
thorax 3.71182 -1.32643 1.03532
lowerneck -5.60664 -1.01427 -5.29381
upperneck -3.78774 -0.596143 9.93142
head -0.163393 -0.0718886 4.19888
rclavicle -4.13969e-014 1.53064e-014
rhumerus -47.5876 25.8218 -106.164
rradius 114.763
rwrist 7.2082
rhand -20.7117 13.6323
rfingers 7.12502
rthumb 5.65266 -16.2723
lclavicle -4.13969e-014 1.53064e-014
lhumerus -25.4182 -22.6286 94.3859
lradius 109.158
lwrist 43.8241
lhand 1.801 -14.6959
lfingers 7.12502
lthumb 27.3143 13.3454
rfemur 1.14031 -5.46954 27.2913
rtibia 54.3482
rfoot -207.545 -189.113
rtoes -6.47932
lfemur 4.76353 3.90973 -13.5149
ltibia 47.5481
lfoot -24.7728 -8.51035
ltoes 14.9567
2
root -1.62132 16.4762 -7.0377 168.994 11.3929 -174.64
lowerback 4.08178 -2.6078 0.547787
upperback 5.75297 -3.12453 1.28317
thorax 3.68671 -1.40275 1.05079
lowerneck -5.41771 -1.0858 -5.08932
upperneck -3.88635 -0.696698 9.94501
head -0.221231 -0.128488 4.16104
rclavicle -5.08392e-014 1.47101e-014
rhumerus -46.7855 26.8627 -105.81
rradius 115.308
rwrist 6.99256
rhand -20.9789 13.6122
rfingers 7.12502
rthumb 5.39469 -16.2991
lclavicle -5.08392e-014 1.47101e-014
lhumerus -24.863 -24.3231 95.2486
lradius 110.311
lwrist 43.5786
lhand 1.67257 -14.9352
lfingers 7.12502
lthumb 27.1914 13.1253
rfemur 0.0823839 -5.53468 27.0131
rtibia 56.3128
rfoot -206.282 -189.616
rtoes -7.59068
lfemur 5.125 3.66521 -13.8309
ltibia 47.0364
lfoot -25.4016 -8.73313
ltoes 14.3341
3
root -1.65074 16.4608 -7.07757 168.951 10.8846 -174.73
lowerback 4.18527 -2.71188 0.301035
upperback 5.78264 -3.26076 1.21531
thorax 3.67244 -1.4776 1.12318
lowerneck -5.24336 -1.15478 -4.96046
upperneck -3.96878 -0.788571 10.0162
head -0.271308 -0.179118 4.15952
rclavicle -3.72535e-014 1.82882e-014
rhumerus -45.8534 27.9159 -105.38
rradius 115.848
rwrist 6.77866
rhand -21.1925 13.5131
rfingers 7.12502
rthumb 5.18849 -16.4034
lclavicle -3.72535e-014 1.82882e-014
lhumerus -24.3086 -26.0452 96.0498
lradius 111.333
lwrist 43.3547
lhand 1.44946 -15.2756
lfingers 7.12502
lthumb 26.978 12.8182
rfemur -1.05917 -5.59145 26.8031
rtibia 58.4125
rfoot -204.74 -190.019
rtoes -7.31894
lfemur 5.43916 3.52996 -14.0364
ltibia 46.6417
lfoot -26.0521 -8.99341
ltoes 13.3315
4
root -1.67993 16.4416 -7.11507 168.914 10.378 -174.808
lowerback 4.30191 -2.81966 0.0797518
upperback 5.8244 -3.39997 1.1489
thorax 3.66305 -1.55212 1.18354
lowerneck -5.08063 -1.22449 -4.82024
upperneck -4.0728 -0.879999 10.0496
head -0.326701 -0.229942 4.14255
rclavicle -5.82501e-014 9.74045e-015
rhumerus -44.8052 28.9456 -104.873
rradius 116.392
rwrist 6.66437
rhand -21.397 13.3923
rfingers 7.12502
rthumb 4.99098 -16.5289
lclavicle -5.82501e-014 9.74045e-015
lhumerus -23.6953 -27.7671 96.7271
lradius 112.234
lwrist 43.1794
lhand 1.24801 -15.6756
lfingers 7.12502
lthumb 26.7852 12.4479
rfemur -2.26556 -5.6953 26.5825
rtibia 60.5986
rfoot -203.011 -190.281
rtoes -5.80222
lfemur 5.71408 3.41405 -14.2161
ltibia 46.2906
lfoot -26.6133 -9.27258
ltoes 12.5908
5
root -1.70744 16.4266 -7.15338 168.872 9.88287 -174.874
lowerback 4.437 -2.92509 -0.129231
upperback 5.87926 -3.53409 1.09212
thorax 3.65769 -1.62284 1.24778
lowerneck -4.93306 -1.30116 -4.7392
upperneck -4.18636 -0.975039 10.1149
head -0.381665 -0.281333 4.14904
rclavicle 1.23557e-014 -1.49089e-014
rhumerus -43.6408 29.8928 -104.292
rradius 116.943
rwrist 6.60041
rhand -21.5195 13.3366
rfingers 7.12502
rthumb 4.87276 -16.5874
lclavicle 1.23557e-014 -1.49089e-014
lhumerus -23.092 -29.4523 97.3523
lradius 113.028
lwrist 43.0806
lhand 1.08938 -16.1123
lfingers 7.12502
lthumb 26.6334 12.0344
rfemur -3.54893 -5.74638 26.4112
rtibia 62.822
rfoot -201.324 -190.55
rtoes -3.10546
lfemur 6.0264 3.27763 -14.3885
ltibia 45.8844
lfoot -27.0758 -9.50877
ltoes 11.9677
6
root -1.73385 16.4187 -7.19288 168.811 9.40204 -174.923
lowerback 4.62673 -3.03532 -0.297762
upperback 5.92149 -3.67351 1.02661
thorax 3.60621 -1.69427 1.28405
lowerneck -4.74606 -1.37391 -4.7037
upperneck -4.29292 -1.0632 10.2302
head -0.441328 -0.329894 4.18318
rclavicle -4.14963e-015 1.94809e-014
rhumerus -42.4513 30.7492 -103.718
rradius 117.482
rwrist 6.54647
rhand -21.622 13.3997
rfingers 7.12502
rthumb 4.77375 -16.5266
lclavicle -4.14963e-015 1.94809e-014
lhumerus -22.6081 -31.0367 97.93
lradius 113.746
lwrist 42.9375
lhand 1.06104 -16.6294
lfingers 7.12502
lthumb 26.6063 11.5214
rfemur -4.84162 -5.66271 26.318
rtibia 65.0637
rfoot -200.095 -190.733
rtoes 0.861216
lfemur 6.42074 3.11518 -14.5487
ltibia 45.3746
lfoot -27.434 -9.76857
ltoes 11.4748
